<svg viewBox="0 0 900 300" width="900" height="300" xmlns="http://www.w3.org/2000/svg">
  <rect x="0" y="0" width="900" height="300" rx="10" fill="#0A0E1A"/>
  <rect x="0.5" y="0.5" width="899" height="299" rx="10" fill="none" stroke="#232F4B" stroke-width="1"/>
  <path d="M 16 25.6 L 16 16 L 25.6 16" fill="none" stroke="#4C7FFF" stroke-width="1.5" opacity="0.8"/>
  <path d="M 884 25.6 L 884 16 L 874.4 16" fill="none" stroke="#4C7FFF" stroke-width="1.5" opacity="0.8"/>
  <path d="M 16 274.4 L 16 284 L 25.6 284" fill="none" stroke="#4C7FFF" stroke-width="1.5" opacity="0.8"/>
  <path d="M 884 274.4 L 884 284 L 874.4 284" fill="none" stroke="#4C7FFF" stroke-width="1.5" opacity="0.8"/>

  <text x="450" y="42" text-anchor="middle" font-family="'JetBrains Mono','SF Mono',Consolas,monospace" font-size="13" letter-spacing="3" fill="#8892B0">ACCOMPLISHMENTS</text>

  <rect x="50" y="64" width="400" height="96" rx="8" fill="#111827" stroke="#232F4B" stroke-width="1"/>
  <rect x="50" y="64" width="3" height="96" rx="1.5" fill="#4C7FFF"/>
  <text x="74" y="102" font-family="'JetBrains Mono','SF Mono',Consolas,monospace" font-size="16" font-weight="700" fill="#EAF0FF" letter-spacing="0.5">HACKATHON WINNER</text>
  <text x="74" y="126" font-family="-apple-system,'Segoe UI',Helvetica,Arial,sans-serif" font-size="13.5" fill="#8892B0">First place finish, university hackathon</text>

  <rect x="474" y="64" width="400" height="96" rx="8" fill="#111827" stroke="#232F4B" stroke-width="1"/>
  <rect x="474" y="64" width="3" height="96" rx="1.5" fill="#4C7FFF"/>
  <text x="498" y="102" font-family="'JetBrains Mono','SF Mono',Consolas,monospace" font-size="16" font-weight="700" fill="#EAF0FF" letter-spacing="0.5">98% QUOTE ACCURACY</text>
  <text x="498" y="126" font-family="-apple-system,'Segoe UI',Helvetica,Arial,sans-serif" font-size="13.5" fill="#8892B0">Tradesman quoting tool, results in under 30 seconds</text>

  <rect x="50" y="184" width="400" height="96" rx="8" fill="#111827" stroke="#232F4B" stroke-width="1"/>
  <rect x="50" y="184" width="3" height="96" rx="1.5" fill="#4C7FFF"/>
  <text x="74" y="222" font-family="'JetBrains Mono','SF Mono',Consolas,monospace" font-size="16" font-weight="700" fill="#EAF0FF" letter-spacing="0.5">12 AI PERSONAS</text>
  <text x="74" y="246" font-family="-apple-system,'Segoe UI',Helvetica,Arial,sans-serif" font-size="13.5" fill="#8892B0">Agora, a multi persona philosophy chat engine</text>

  <rect x="474" y="184" width="400" height="96" rx="8" fill="#111827" stroke="#232F4B" stroke-width="1"/>
  <rect x="474" y="184" width="3" height="96" rx="1.5" fill="#4C7FFF"/>
  <text x="498" y="222" font-family="'JetBrains Mono','SF Mono',Consolas,monospace" font-size="16" font-weight="700" fill="#EAF0FF" letter-spacing="0.5">ENTERPRISE ARCHITECTURE</text>
  <text x="498" y="246" font-family="-apple-system,'Segoe UI',Helvetica,Arial,sans-serif" font-size="13.5" fill="#8892B0">TechMove GLMS, built with GoF design patterns</text>
</svg>
