<svg viewBox="0 0 440 195" width="440" height="195" xmlns="http://www.w3.org/2000/svg">
  <rect x="0" y="0" width="440" height="195" rx="10" fill="#0A0E1A"/>
  <rect x="0.5" y="0.5" width="439" height="194" rx="10" fill="none" stroke="#232F4B" stroke-width="1"/>
  <path d="M 14 22.400000000000002 L 14 14 L 22.400000000000002 14" fill="none" stroke="#4C7FFF" stroke-width="1.5" opacity="0.8"/>
  <path d="M 426 22.400000000000002 L 426 14 L 417.6 14" fill="none" stroke="#4C7FFF" stroke-width="1.5" opacity="0.8"/>
  <path d="M 14 172.6 L 14 181 L 22.400000000000002 181" fill="none" stroke="#4C7FFF" stroke-width="1.5" opacity="0.8"/>
  <path d="M 426 172.6 L 426 181 L 417.6 181" fill="none" stroke="#4C7FFF" stroke-width="1.5" opacity="0.8"/>

  <text x="220.0" y="34" text-anchor="middle" font-family="'JetBrains Mono','SF Mono',Consolas,monospace" font-size="12" letter-spacing="2.5" fill="#8892B0">LANGUAGES</text>

  <rect x="85.5" y="71.5" width="83.0" height="34" rx="17.0" fill="#111827" stroke="#232F4B" stroke-width="1"/>
  <text x="127.0" y="93.0" text-anchor="middle" font-family="-apple-system,'Segoe UI',Helvetica,Arial,sans-serif" font-size="12.5" fill="#EAF0FF">Python</text>

  <rect x="178.5" y="71.5" width="117.0" height="34" rx="17.0" fill="#111827" stroke="#232F4B" stroke-width="1"/>
  <text x="237.0" y="93.0" text-anchor="middle" font-family="-apple-system,'Segoe UI',Helvetica,Arial,sans-serif" font-size="12.5" fill="#EAF0FF">TypeScript</text>

  <rect x="305.5" y="71.5" width="49.0" height="34" rx="17.0" fill="#111827" stroke="#232F4B" stroke-width="1"/>
  <text x="330.0" y="93.0" text-anchor="middle" font-family="-apple-system,'Segoe UI',Helvetica,Arial,sans-serif" font-size="12.5" fill="#EAF0FF">C#</text>

  <rect x="39.0" y="117.5" width="117.0" height="34" rx="17.0" fill="#111827" stroke="#232F4B" stroke-width="1"/>
  <text x="97.5" y="139.0" text-anchor="middle" font-family="-apple-system,'Segoe UI',Helvetica,Arial,sans-serif" font-size="12.5" fill="#EAF0FF">JavaScript</text>

  <rect x="166.0" y="117.5" width="66.0" height="34" rx="17.0" fill="#111827" stroke="#232F4B" stroke-width="1"/>
  <text x="199.0" y="139.0" text-anchor="middle" font-family="-apple-system,'Segoe UI',Helvetica,Arial,sans-serif" font-size="12.5" fill="#EAF0FF">HTML</text>

  <rect x="242.0" y="117.5" width="83.0" height="34" rx="17.0" fill="#111827" stroke="#232F4B" stroke-width="1"/>
  <text x="283.5" y="139.0" text-anchor="middle" font-family="-apple-system,'Segoe UI',Helvetica,Arial,sans-serif" font-size="12.5" fill="#EAF0FF">Kotlin</text>

  <rect x="335.0" y="117.5" width="66.0" height="34" rx="17.0" fill="#111827" stroke="#232F4B" stroke-width="1"/>
  <text x="368.0" y="139.0" text-anchor="middle" font-family="-apple-system,'Segoe UI',Helvetica,Arial,sans-serif" font-size="12.5" fill="#EAF0FF">Java</text>
</svg>
