<svg viewBox="0 0 900 150" width="900" height="150" xmlns="http://www.w3.org/2000/svg">
  <rect x="0" y="0" width="900" height="150" rx="10" fill="#0A0E1A"/>
  <rect x="0.5" y="0.5" width="899" height="149" rx="10" fill="none" stroke="#232F4B" stroke-width="1"/>
  <path d="M 16 25.6 L 16 16 L 25.6 16" fill="none" stroke="#4C7FFF" stroke-width="1.5" opacity="0.8"/>
  <path d="M 884 25.6 L 884 16 L 874.4 16" fill="none" stroke="#4C7FFF" stroke-width="1.5" opacity="0.8"/>
  <path d="M 16 124.4 L 16 134 L 25.6 134" fill="none" stroke="#4C7FFF" stroke-width="1.5" opacity="0.8"/>
  <path d="M 884 124.4 L 884 134 L 874.4 134" fill="none" stroke="#4C7FFF" stroke-width="1.5" opacity="0.8"/>

  <text x="450" y="42" text-anchor="middle" font-family="'JetBrains Mono','SF Mono',Consolas,monospace" font-size="13" letter-spacing="3" fill="#8892B0">LANGUAGES</text>

  <rect x="65.0" y="78" width="98" height="42" rx="21.0" fill="#111827" stroke="#232F4B" stroke-width="1"/>
  <text x="114.0" y="104.0" text-anchor="middle" font-family="-apple-system,'Segoe UI',Helvetica,Arial,sans-serif" font-size="14.5" fill="#EAF0FF">Python</text>

  <rect x="177.0" y="78" width="134" height="42" rx="21.0" fill="#111827" stroke="#232F4B" stroke-width="1"/>
  <text x="244.0" y="104.0" text-anchor="middle" font-family="-apple-system,'Segoe UI',Helvetica,Arial,sans-serif" font-size="14.5" fill="#EAF0FF">TypeScript</text>

  <rect x="325.0" y="78" width="62" height="42" rx="21.0" fill="#111827" stroke="#232F4B" stroke-width="1"/>
  <text x="356.0" y="104.0" text-anchor="middle" font-family="-apple-system,'Segoe UI',Helvetica,Arial,sans-serif" font-size="14.5" fill="#EAF0FF">C#</text>

  <rect x="401.0" y="78" width="134" height="42" rx="21.0" fill="#111827" stroke="#232F4B" stroke-width="1"/>
  <text x="468.0" y="104.0" text-anchor="middle" font-family="-apple-system,'Segoe UI',Helvetica,Arial,sans-serif" font-size="14.5" fill="#EAF0FF">JavaScript</text>

  <rect x="549.0" y="78" width="80" height="42" rx="21.0" fill="#111827" stroke="#232F4B" stroke-width="1"/>
  <text x="589.0" y="104.0" text-anchor="middle" font-family="-apple-system,'Segoe UI',Helvetica,Arial,sans-serif" font-size="14.5" fill="#EAF0FF">HTML</text>

  <rect x="643.0" y="78" width="98" height="42" rx="21.0" fill="#111827" stroke="#232F4B" stroke-width="1"/>
  <text x="692.0" y="104.0" text-anchor="middle" font-family="-apple-system,'Segoe UI',Helvetica,Arial,sans-serif" font-size="14.5" fill="#EAF0FF">Kotlin</text>

  <rect x="755.0" y="78" width="80" height="42" rx="21.0" fill="#111827" stroke="#232F4B" stroke-width="1"/>
  <text x="795.0" y="104.0" text-anchor="middle" font-family="-apple-system,'Segoe UI',Helvetica,Arial,sans-serif" font-size="14.5" fill="#EAF0FF">Java</text>
</svg>
