<svg viewBox="0 0 900 150" width="900" height="150" xmlns="http://www.w3.org/2000/svg">
  <rect x="0" y="0" width="900" height="150" rx="10" fill="#0A0E1A"/>
  <rect x="0.5" y="0.5" width="899" height="149" rx="10" fill="none" stroke="#232F4B" stroke-width="1"/>
  <path d="M 16 25.6 L 16 16 L 25.6 16" fill="none" stroke="#4C7FFF" stroke-width="1.5" opacity="0.8"/>
  <path d="M 884 25.6 L 884 16 L 874.4 16" fill="none" stroke="#4C7FFF" stroke-width="1.5" opacity="0.8"/>
  <path d="M 16 124.4 L 16 134 L 25.6 134" fill="none" stroke="#4C7FFF" stroke-width="1.5" opacity="0.8"/>
  <path d="M 884 124.4 L 884 134 L 874.4 134" fill="none" stroke="#4C7FFF" stroke-width="1.5" opacity="0.8"/>

  <text x="450" y="42" text-anchor="middle" font-family="'JetBrains Mono','SF Mono',Consolas,monospace" font-size="13" letter-spacing="3" fill="#8892B0">TECH STACK</text>
  <clipPath id="tickerClip"><rect x="20" y="78" width="860" height="44"/></clipPath>
  <g clip-path="url(#tickerClip)">
    <g transform="translate(20 78)">
      <animateTransform attributeName="transform" type="translate"
        values="20 78; -1570 78"
        dur="29s" repeatCount="indefinite"/>
      
  <rect x="0" y="0" width="125" height="44" rx="22.0" fill="#111827" stroke="#232F4B" stroke-width="1"/>
  <text x="62.5" y="27.0" text-anchor="middle" font-family="-apple-system,'Segoe UI',Helvetica,Arial,sans-serif" font-size="14.5" fill="#EAF0FF">C# / .NET</text>

  <rect x="143" y="0" width="134" height="44" rx="22.0" fill="#111827" stroke="#232F4B" stroke-width="1"/>
  <text x="210.0" y="27.0" text-anchor="middle" font-family="-apple-system,'Segoe UI',Helvetica,Arial,sans-serif" font-size="14.5" fill="#EAF0FF">TypeScript</text>

  <rect x="295" y="0" width="107" height="44" rx="22.0" fill="#111827" stroke="#232F4B" stroke-width="1"/>
  <text x="348.5" y="27.0" text-anchor="middle" font-family="-apple-system,'Segoe UI',Helvetica,Arial,sans-serif" font-size="14.5" fill="#EAF0FF">Next.js</text>

  <rect x="420" y="0" width="98" height="44" rx="22.0" fill="#111827" stroke="#232F4B" stroke-width="1"/>
  <text x="469.0" y="27.0" text-anchor="middle" font-family="-apple-system,'Segoe UI',Helvetica,Arial,sans-serif" font-size="14.5" fill="#EAF0FF">Python</text>

  <rect x="536" y="0" width="98" height="44" rx="22.0" fill="#111827" stroke="#232F4B" stroke-width="1"/>
  <text x="585.0" y="27.0" text-anchor="middle" font-family="-apple-system,'Segoe UI',Helvetica,Arial,sans-serif" font-size="14.5" fill="#EAF0FF">Kotlin</text>

  <rect x="652" y="0" width="116" height="44" rx="22.0" fill="#111827" stroke="#232F4B" stroke-width="1"/>
  <text x="710.0" y="27.0" text-anchor="middle" font-family="-apple-system,'Segoe UI',Helvetica,Arial,sans-serif" font-size="14.5" fill="#EAF0FF">Supabase</text>

  <rect x="786" y="0" width="134" height="44" rx="22.0" fill="#111827" stroke="#232F4B" stroke-width="1"/>
  <text x="853.0" y="27.0" text-anchor="middle" font-family="-apple-system,'Segoe UI',Helvetica,Arial,sans-serif" font-size="14.5" fill="#EAF0FF">PostgreSQL</text>

  <rect x="938" y="0" width="98" height="44" rx="22.0" fill="#111827" stroke="#232F4B" stroke-width="1"/>
  <text x="987.0" y="27.0" text-anchor="middle" font-family="-apple-system,'Segoe UI',Helvetica,Arial,sans-serif" font-size="14.5" fill="#EAF0FF">Docker</text>

  <rect x="1054" y="0" width="98" height="44" rx="22.0" fill="#111827" stroke="#232F4B" stroke-width="1"/>
  <text x="1103.0" y="27.0" text-anchor="middle" font-family="-apple-system,'Segoe UI',Helvetica,Arial,sans-serif" font-size="14.5" fill="#EAF0FF">Vercel</text>

  <rect x="1170" y="0" width="161" height="44" rx="22.0" fill="#111827" stroke="#232F4B" stroke-width="1"/>
  <text x="1250.5" y="27.0" text-anchor="middle" font-family="-apple-system,'Segoe UI',Helvetica,Arial,sans-serif" font-size="14.5" fill="#EAF0FF">Anthropic API</text>

  <rect x="1349" y="0" width="98" height="44" rx="22.0" fill="#111827" stroke="#232F4B" stroke-width="1"/>
  <text x="1398.0" y="27.0" text-anchor="middle" font-family="-apple-system,'Segoe UI',Helvetica,Arial,sans-serif" font-size="14.5" fill="#EAF0FF">Ollama</text>

  <rect x="1465" y="0" width="107" height="44" rx="22.0" fill="#111827" stroke="#232F4B" stroke-width="1"/>
  <text x="1518.5" y="27.0" text-anchor="middle" font-family="-apple-system,'Segoe UI',Helvetica,Arial,sans-serif" font-size="14.5" fill="#EAF0FF">Whisper</text>

      
  <rect x="1590" y="0" width="125" height="44" rx="22.0" fill="#111827" stroke="#232F4B" stroke-width="1"/>
  <text x="1652.5" y="27.0" text-anchor="middle" font-family="-apple-system,'Segoe UI',Helvetica,Arial,sans-serif" font-size="14.5" fill="#EAF0FF">C# / .NET</text>

  <rect x="1733" y="0" width="134" height="44" rx="22.0" fill="#111827" stroke="#232F4B" stroke-width="1"/>
  <text x="1800.0" y="27.0" text-anchor="middle" font-family="-apple-system,'Segoe UI',Helvetica,Arial,sans-serif" font-size="14.5" fill="#EAF0FF">TypeScript</text>

  <rect x="1885" y="0" width="107" height="44" rx="22.0" fill="#111827" stroke="#232F4B" stroke-width="1"/>
  <text x="1938.5" y="27.0" text-anchor="middle" font-family="-apple-system,'Segoe UI',Helvetica,Arial,sans-serif" font-size="14.5" fill="#EAF0FF">Next.js</text>

  <rect x="2010" y="0" width="98" height="44" rx="22.0" fill="#111827" stroke="#232F4B" stroke-width="1"/>
  <text x="2059.0" y="27.0" text-anchor="middle" font-family="-apple-system,'Segoe UI',Helvetica,Arial,sans-serif" font-size="14.5" fill="#EAF0FF">Python</text>

  <rect x="2126" y="0" width="98" height="44" rx="22.0" fill="#111827" stroke="#232F4B" stroke-width="1"/>
  <text x="2175.0" y="27.0" text-anchor="middle" font-family="-apple-system,'Segoe UI',Helvetica,Arial,sans-serif" font-size="14.5" fill="#EAF0FF">Kotlin</text>

  <rect x="2242" y="0" width="116" height="44" rx="22.0" fill="#111827" stroke="#232F4B" stroke-width="1"/>
  <text x="2300.0" y="27.0" text-anchor="middle" font-family="-apple-system,'Segoe UI',Helvetica,Arial,sans-serif" font-size="14.5" fill="#EAF0FF">Supabase</text>

  <rect x="2376" y="0" width="134" height="44" rx="22.0" fill="#111827" stroke="#232F4B" stroke-width="1"/>
  <text x="2443.0" y="27.0" text-anchor="middle" font-family="-apple-system,'Segoe UI',Helvetica,Arial,sans-serif" font-size="14.5" fill="#EAF0FF">PostgreSQL</text>

  <rect x="2528" y="0" width="98" height="44" rx="22.0" fill="#111827" stroke="#232F4B" stroke-width="1"/>
  <text x="2577.0" y="27.0" text-anchor="middle" font-family="-apple-system,'Segoe UI',Helvetica,Arial,sans-serif" font-size="14.5" fill="#EAF0FF">Docker</text>

  <rect x="2644" y="0" width="98" height="44" rx="22.0" fill="#111827" stroke="#232F4B" stroke-width="1"/>
  <text x="2693.0" y="27.0" text-anchor="middle" font-family="-apple-system,'Segoe UI',Helvetica,Arial,sans-serif" font-size="14.5" fill="#EAF0FF">Vercel</text>

  <rect x="2760" y="0" width="161" height="44" rx="22.0" fill="#111827" stroke="#232F4B" stroke-width="1"/>
  <text x="2840.5" y="27.0" text-anchor="middle" font-family="-apple-system,'Segoe UI',Helvetica,Arial,sans-serif" font-size="14.5" fill="#EAF0FF">Anthropic API</text>

  <rect x="2939" y="0" width="98" height="44" rx="22.0" fill="#111827" stroke="#232F4B" stroke-width="1"/>
  <text x="2988.0" y="27.0" text-anchor="middle" font-family="-apple-system,'Segoe UI',Helvetica,Arial,sans-serif" font-size="14.5" fill="#EAF0FF">Ollama</text>

  <rect x="3055" y="0" width="107" height="44" rx="22.0" fill="#111827" stroke="#232F4B" stroke-width="1"/>
  <text x="3108.5" y="27.0" text-anchor="middle" font-family="-apple-system,'Segoe UI',Helvetica,Arial,sans-serif" font-size="14.5" fill="#EAF0FF">Whisper</text>

    </g>
  </g>
</svg>
